<?xml version="1.0" encoding="UTF-8" standalone="no"?>
<!-- Generator: Adobe Illustrator 23.0.3, SVG Export Plug-In . SVG Version: 6.00 Build 0)  -->

<svg
   version="1.1"
   id="Layer_1"
   x="0px"
   y="0px"
   viewBox="0 0 1000 1000"
   style="enable-background:new 0 0 1000 1000;"
   xml:space="preserve"
   sodipodi:docname="logo.svg"
   inkscape:version="1.2.1 (9c6d41e410, 2022-07-14)"
   xmlns:inkscape="http://www.inkscape.org/namespaces/inkscape"
   xmlns:sodipodi="http://sodipodi.sourceforge.net/DTD/sodipodi-0.dtd"
   xmlns="http://www.w3.org/2000/svg"
   xmlns:svg="http://www.w3.org/2000/svg"><defs
   id="defs130" /><sodipodi:namedview
   id="namedview128"
   pagecolor="#ffffff"
   bordercolor="#000000"
   borderopacity="0.25"
   inkscape:showpageshadow="2"
   inkscape:pageopacity="0.0"
   inkscape:pagecheckerboard="0"
   inkscape:deskcolor="#d1d1d1"
   showgrid="false"
   inkscape:zoom="0.837"
   inkscape:cx="254.48029"
   inkscape:cy="499.40263"
   inkscape:window-width="1920"
   inkscape:window-height="1017"
   inkscape:window-x="-8"
   inkscape:window-y="-8"
   inkscape:window-maximized="1"
   inkscape:current-layer="Layer_1" />
<style
   type="text/css"
   id="style67">
	.st0{fill:#FEFEFE;}
	.st1{fill:#9D1518;}
	.st2{fill:#9C1417;}
	.st3{fill:#F9D7D7;}
	.st4{fill:#FEE1E1;}
	.st5{fill:#FAD9D9;}
	.st6{fill:#C5696B;}
	.st7{fill:#B14042;}
	.st8{fill:#CB7778;}
	.st9{fill:#A11E21;}
	.st10{fill:#A42527;}
	.st11{fill:#C76E6F;}
</style>
<g
   id="g125"
   transform="matrix(2.476722,0,0,2.476722,-768.19426,-615.68135)">
	<g
   id="g123">
		
		<path
   class="st1"
   d="m 328.4,466 c -0.5,-27.4 19.7,-55.1 51.5,-60.6 3.7,-0.6 7.5,-0.6 11.2,-0.9 4.3,-0.3 7.5,-2.4 9.7,-6.1 7.7,-12.9 19,-20.9 33.6,-24.1 26.4,-5.7 54.2,10 60.4,38 5.3,24 -9.5,48.9 -33.7,56.3 -6.1,1.9 -9.5,5.4 -11.1,11.7 -6.7,25.2 -23,41.1 -48.5,46.3 -33.4,6.7 -65.4,-15.5 -71.7,-48.4 -0.8,-4.1 -1,-8.2 -1.4,-12.2 z m 89.6,32.4 c -0.4,-2.7 -1.1,-3.1 -3.3,-2 -0.3,-0.8 -0.8,-1.6 -0.9,-2.4 -0.5,-3.4 -0.8,-6.8 -1.2,-10.2 -0.2,-2.2 -0.6,-4.5 -0.4,-6.6 0.2,-2.5 1.2,-5 1.6,-7.5 0.3,-1.8 1.1,-2.2 2.8,-2.3 5.9,-0.2 11.9,-0.2 17.2,-3.3 0.5,-0.3 1.2,-0.1 1.9,-0.2 3.7,-0.5 7.4,-0.9 11.3,-1.4 -0.2,-0.6 -0.3,-1.1 -0.4,-1.1 -36.5,-0.1 -72.9,-0.1 -109.4,-0.1 -0.3,0 -0.7,0.5 -1.3,1 3.4,0.6 6.4,1.2 9.4,1.7 1.7,0.3 3.5,0.2 5.1,0.6 3.6,0.8 7,2 10.6,2.6 3.9,0.6 8,-0.1 11.2,3.2 1.4,1.5 3.6,2.1 5.1,3.5 8.9,8.5 17.8,17 26.6,25.6 0.3,0.3 0.4,1 0.6,1.5 -0.8,0.9 -1.6,1.8 -2.4,2.7 -0.1,0.2 -0.2,0.3 -0.3,0.5 0,0.4 0,0.8 0,1.3 0.1,0.3 0.2,0.5 0.3,0.8 -0.2,0.4 -0.4,0.8 -0.6,1.2 -1,1.1 -1.9,2.2 -2.9,3.4 0.9,1 1.6,1.8 2.3,2.5 -1.5,2.2 -0.7,3.9 3.2,7.4 3.8,-4.1 8.5,-6.5 14,-7.6 2.5,-0.5 4.2,-2.3 3.8,-4.8 -0.3,-2.4 -1.6,-4.7 -2.5,-7.1 -0.4,-1 -0.9,-2 -1.4,-2.9 z m 31.1,-83 c -1.4,-5.2 -4.4,-9.1 -9.1,-11.4 -4.8,-2.3 -9.9,-3.1 -15.1,-2 -4,0.8 -7.7,2.5 -10.7,5.5 -3.3,3.4 -5.1,7.5 -5.8,12.2 -1.1,7.2 0.7,13.5 5.6,18.6 4.8,5 11,6.7 17.9,6 4.8,-0.5 8.8,-2.4 12.4,-5.5 5.6,-4.9 6.1,-11.2 5.2,-18 -7.2,0 -14.4,0 -21.7,0 0,2.4 0,4.7 0,7.1 4.3,0 8.4,0 12.6,0 -1.4,4.7 -4.7,7.3 -9.2,7.6 -4.1,0.2 -8,-0.7 -10.6,-4.7 -2.4,-3.8 -2.5,-7.7 -1.5,-11.7 1.9,-7.6 10.8,-10.4 16.1,-6.1 2.8,2.3 5.4,2.5 8.4,2.5 1.7,-0.1 3.5,-0.1 5.5,-0.1 z m 2.1,11.9 c -0.8,10.2 7.6,17.2 16.5,17.3 10.5,0.1 18,-7 18,-17.1 0,-10.7 -7.2,-17.3 -17.4,-17.4 -9.4,0 -17.7,6.8 -17.1,17.2 z"
   id="path71" />
		<path
   class="st2"
   d="m 562.3,404 c -3.7,14.1 -7.3,28.1 -11,42.1 -3.7,0 -7.4,0.1 -11,-0.1 -0.6,0 -1.5,-0.9 -1.7,-1.6 -2,-8 -3.9,-16.1 -5.8,-24.2 -0.1,-0.4 -0.4,-0.8 -0.7,-1.4 -2.2,8.7 -4.4,17.2 -6.4,25.7 -0.3,1.4 -0.9,1.6 -2.1,1.6 -3.5,0 -7,0 -10.8,0 -3.5,-14 -7.1,-28 -10.7,-42.1 3.6,0 7.2,0 10.9,0 2,10 4,19.9 6.1,30.5 2.6,-10.5 5.1,-20.6 7.5,-30.5 3.9,0 7.5,0 11.3,0 2.3,10 4.7,20 7.2,30.6 2.1,-10.6 4.1,-20.5 6.1,-30.6 3.5,0 7.1,0 11.1,0 z"
   id="path73" />
		<path
   class="st2"
   d="m 588.4,417.6 c 0,-2 0,-3.4 0,-5 3.3,0 6.6,0 10,0 0,11 0,22.1 0,33.3 -3.2,0 -6.4,0 -9.9,0 0,-1.4 0,-2.9 0,-4.8 -3.4,4.7 -7.9,6.1 -12.8,5.2 -4.8,-0.8 -8.4,-3.6 -10.5,-8.3 -3.5,-7.6 -1.8,-18.1 3.8,-22.8 5.6,-4.4 15.2,-4.4 19.4,2.4 z m -7.3,3.5 c -3.9,-0.3 -7.4,3.2 -7.5,8.2 0,4.1 2.9,8.2 7.2,8.2 4.2,0.1 7.7,-3.5 7.6,-8.3 -0.1,-4.9 -3.5,-8.3 -7.3,-8.1 z"
   id="path75" />
		<path
   class="st2"
   d="m 671.8,431.7 c -7.6,0 -15.1,0 -22.7,0 -0.1,2.9 1.2,5.3 3.5,6.1 2.4,0.8 4.8,0.7 6.6,-1.3 1,-1.1 2,-1.5 3.5,-1.5 2.8,0.1 5.6,0 8.4,0 -1.4,7.7 -9.9,12.9 -18.2,11.4 -11.4,-2.1 -15.4,-9.4 -13.9,-20.8 1.3,-10.1 9.7,-14.2 17.6,-13.5 10.6,0.9 16.8,8.2 15.2,19.6 z M 661.7,426 c -0.6,-3.6 -2.9,-5.7 -6.1,-5.8 -2.9,-0.1 -5.6,2.3 -6.5,5.8 4.2,0 8.4,0 12.6,0 z"
   id="path77" />
		<path
   class="st2"
   d="m 637.8,437.4 c 0,2.9 0,5.6 0,8.9 -3.5,-0.3 -7.1,-0.1 -10.4,-1.1 -5,-1.5 -6.4,-4.9 -6.7,-10.1 -0.3,-4.5 -0.1,-9.1 -0.1,-13.9 -1.2,-0.1 -2.4,-0.1 -3.7,-0.2 0,-2.8 0,-5.5 0,-8.5 1.1,-0.1 2.3,-0.1 3.6,-0.2 0,-2.6 0,-5.2 0,-8 3.6,0 7,0 10.5,0 0,2.6 0,5.1 0,7.9 2.2,0 4.4,0 6.6,0 0,3 0,5.7 0,8.7 -2,0 -4.1,0 -6.5,0 0,5.1 -0.1,9.9 0.1,14.7 0,0.6 1.5,1.4 2.4,1.6 1.4,0.4 2.7,0.2 4.2,0.2 z"
   id="path79" />
		<path
   class="st2"
   d="m 685.4,446 c -3.5,0 -6.7,0 -10,0 0,-11.1 0,-22.2 0,-33.4 3.3,0 6.5,0 9.9,0 0,1.6 0,3.3 0,5.4 3.1,-3.1 5.8,-6.1 10.4,-5.4 0,3.4 0,6.8 0,10.5 -1.5,0 -3.1,-0.2 -4.6,0 -3.7,0.6 -5.8,3.3 -5.8,7.2 0.1,5.2 0.1,10.3 0.1,15.7 z"
   id="path81" />
		<path
   class="st2"
   d="m 604,412.5 c 3.3,0 6.5,0 9.8,0 0,11.1 0,22.2 0,33.4 -3.2,0 -6.4,0 -9.8,0 0,-11 0,-22.1 0,-33.4 z"
   id="path83" />
		<path
   class="st2"
   d="m 602.9,403.3 c 0,-3.2 2.5,-5.2 6.2,-5.2 3.4,0 5.8,2.3 5.8,5.5 0,3.3 -2.2,5.6 -6.1,5.5 -3.7,-0.1 -6,-2.2 -5.9,-5.8 z"
   id="path85" />
		<path
   class="st3"
   d="m 404.6,500.8 c -0.2,-0.5 -0.2,-1.2 -0.6,-1.5 -8.8,-8.6 -17.7,-17.1 -26.6,-25.6 -1.5,-1.4 -3.7,-2 -5.1,-3.5 -3.2,-3.3 -7.3,-2.6 -11.2,-3.2 -3.6,-0.6 -7.1,-1.8 -10.6,-2.6 -1.7,-0.4 -3.4,-0.3 -5.1,-0.6 -3,-0.5 -6,-1.1 -9.4,-1.7 0.7,-0.5 1,-1 1.3,-1 36.5,0 72.9,0.1 109.4,0.1 0.1,0 0.2,0.5 0.4,1.1 -3.9,0.5 -7.6,0.9 -11.3,1.4 -0.6,0.1 -1.4,-0.1 -1.9,0.2 -5.4,3.1 -11.3,3.2 -17.2,3.3 -1.7,0 -2.6,0.5 -2.8,2.3 -0.4,2.5 -1.3,5 -1.6,7.5 -0.2,2.2 0.2,4.4 0.4,6.6 0.3,3.4 0.7,6.8 1.2,10.2 0.1,0.8 0.6,1.6 0.9,2.4 0.2,0.3 0.3,0.6 0.5,1 -0.3,0.9 -0.3,2.2 -0.8,2.5 -2.8,1.6 -5.8,2.9 -8.8,4.3 -0.4,-0.9 -0.8,-2.1 -1.1,-3.2 z m 4.7,-32.9 c -4.8,0 -9.9,0 -14.8,0 1.4,2.8 3,5.4 4.1,8.2 1.8,4.3 1.7,4.4 6,3.2 0.7,-0.2 1.6,-1.1 1.8,-1.8 1.1,-3.2 1.9,-6.4 2.9,-9.6 z m -27.1,0.2 c 3.9,3.4 7.7,6.8 11.8,10.4 -0.5,-6.8 -3.6,-12.7 -11.8,-10.4 z"
   id="path87" />
		<path
   class="st4"
   d="m 449.1,415.4 c -2,0 -3.7,0 -5.5,0 -3,0 -5.6,-0.2 -8.4,-2.5 -5.3,-4.3 -14.2,-1.5 -16.1,6.1 -1,4 -0.9,8 1.5,11.7 2.6,4 6.5,4.9 10.6,4.7 4.5,-0.2 7.8,-2.8 9.2,-7.6 -4.2,0 -8.3,0 -12.6,0 0,-2.4 0,-4.7 0,-7.1 7.2,0 14.5,0 21.7,0 1,6.8 0.4,13.1 -5.2,18 -3.6,3.1 -7.6,5 -12.4,5.5 -7,0.7 -13.1,-0.9 -17.9,-6 -4.9,-5.1 -6.7,-11.4 -5.6,-18.6 0.7,-4.7 2.5,-8.8 5.8,-12.2 3,-3 6.7,-4.6 10.7,-5.5 5.2,-1.1 10.3,-0.4 15.1,2 4.7,2.4 7.6,6.2 9.1,11.5 z"
   id="path89" />
		<path
   class="st4"
   d="m 451.2,427.3 c -0.6,-10.5 7.7,-17.3 17.2,-17.2 10.1,0.1 17.4,6.7 17.4,17.4 0,10.1 -7.6,17.2 -18,17.1 -9,0 -17.4,-7.1 -16.6,-17.3 z m 24,0 c 0,-0.5 0,-1 0,-1.4 -0.2,-2.7 -1.4,-4.7 -3.9,-6 -2.4,-1.2 -4.8,-1.1 -6.9,0.4 -2.7,1.8 -3.2,4.9 -3.1,7.7 0.2,4.3 2.6,7.1 5.4,7.5 5.4,1 9,-3.5 8.5,-8.2 z"
   id="path91" />
		<path
   class="st5"
   d="m 419.6,501.2 c 0.9,2.3 2.2,4.6 2.5,7.1 0.3,2.4 -1.3,4.3 -3.8,4.8 -5.5,1.1 -10.2,3.5 -14,7.6 -4,-3.5 -4.7,-5.2 -3.2,-7.4 -0.7,-0.8 -1.4,-1.6 -2.3,-2.5 1,-1.2 2,-2.3 2.9,-3.4 0.8,1.9 1.6,3.8 2.4,5.7 0.3,0.6 0.5,2 1.6,0.5 0.3,-0.2 0.6,-0.5 0.9,-0.7 v 0 c 0.2,-0.2 0.3,-0.3 0.5,-0.5 v 0 c 0.2,-0.2 0.3,-0.3 0.5,-0.5 v 0 c 0.4,-0.2 0.9,-0.2 1.2,-0.5 3,-3.1 6,-6.2 8.9,-9.5 0.6,-0.7 0.9,-1.3 1.9,-0.7 z"
   id="path93" />
		<path
   class="st5"
   d="m 415.2,497.4 c -0.2,-0.3 -0.3,-0.6 -0.5,-1 2.3,-1.2 2.9,-0.7 3.3,2 -0.9,1.7 -1.6,3.6 -2.8,5 -2.1,2.5 -4.5,4.6 -6.8,7 -0.4,0.4 -0.6,1 -0.9,1.4 0,0 0,0 0,0 -0.2,0.2 -0.3,0.3 -0.5,0.5 v 0 c -0.2,0.2 -0.3,0.3 -0.5,0.5 0,0 0,0 0,0 -0.3,0 -0.6,0.1 -1,0.1 -0.4,-0.6 -0.9,-1.2 -1.2,-1.9 -0.8,-1.6 -1.5,-3.3 -2.2,-4.9 -0.1,-0.3 -0.2,-0.5 -0.3,-0.8 0,-0.4 0,-0.8 0,-1.3 0.1,-0.2 0.2,-0.3 0.3,-0.5 0.8,1.3 1.8,2.1 3.4,1.7 4,-0.3 7.1,-2.6 10,-5 1.4,-1.1 1.3,-2.1 -0.3,-2.8 z"
   id="path95" />
		<path
   class="st6"
   d="m 407.5,511.8 c 0.3,-0.5 0.5,-1 0.9,-1.4 2.3,-2.3 4.7,-4.5 6.8,-7 1.2,-1.4 1.9,-3.3 2.8,-5 0.5,0.9 1,1.9 1.5,2.8 -1,-0.6 -1.3,-0.1 -1.9,0.7 -2.9,3.2 -5.9,6.3 -8.9,9.5 -0.2,0.2 -0.8,0.3 -1.2,0.4 z"
   id="path97" />
		<path
   class="st7"
   d="m 405.6,505.3 c -1.6,0.4 -2.6,-0.4 -3.4,-1.7 0.8,-0.9 1.6,-1.8 2.4,-2.7 0.3,1.1 0.6,2.3 1,3.4 0,0.2 0,0.6 0,1 z"
   id="path99" />
		<path
   class="st8"
   d="m 402.2,506.1 c 0.7,1.6 1.4,3.3 2.2,4.9 0.3,0.7 0.8,1.3 1.2,1.9 0,0.2 0,0.4 0,0.7 -1.1,1.5 -1.3,0.1 -1.6,-0.5 -0.8,-1.9 -1.6,-3.8 -2.4,-5.7 0.2,-0.5 0.4,-0.9 0.6,-1.3 z"
   id="path101" />
		<path
   class="st8"
   d="m 401.9,504 c 0,0.4 0,0.8 0,1.3 0,-0.4 0,-0.9 0,-1.3 z"
   id="path103" />
		<path
   class="st0"
   d="m 581.1,421.1 c 3.8,-0.2 7.2,3.2 7.3,8.1 0.2,4.8 -3.4,8.4 -7.6,8.3 -4.3,-0.1 -7.2,-4.1 -7.2,-8.2 0.1,-4.9 3.6,-8.5 7.5,-8.2 z"
   id="path105" />
		<path
   class="st0"
   d="m 661.7,426 c -4.2,0 -8.4,0 -12.6,0 0.9,-3.6 3.6,-5.9 6.5,-5.8 3.2,0.1 5.5,2.2 6.1,5.8 z"
   id="path107" />
		<path
   class="st9"
   d="m 409.3,467.9 c -0.9,3.2 -1.8,6.4 -2.9,9.6 -0.2,0.7 -1.1,1.6 -1.8,1.8 -4.4,1.2 -4.3,1.1 -6,-3.2 -1.1,-2.8 -2.7,-5.4 -4.1,-8.2 4.9,0 10,0 14.8,0 z"
   id="path109" />
		<path
   class="st10"
   d="m 382.2,468.1 c 8.3,-2.3 11.3,3.7 11.8,10.4 -4.1,-3.6 -8,-7 -11.8,-10.4 z"
   id="path111" />
		<path
   class="st11"
   d="m 405.6,505.3 c 0,-0.4 0,-0.7 0,-1.1 2.9,-1.4 5.9,-2.7 8.8,-4.3 0.6,-0.3 0.6,-1.7 0.8,-2.5 1.7,0.7 1.8,1.7 0.4,2.8 -2.9,2.5 -6,4.8 -10,5.1 z"
   id="path113" />
		<path
   class="st2"
   d="m 475.2,427.3 c 0.5,4.6 -3.1,9.2 -8.4,8.2 -2.8,-0.5 -5.2,-3.3 -5.4,-7.5 -0.1,-2.9 0.4,-5.9 3.1,-7.7 2.1,-1.4 4.5,-1.6 6.9,-0.4 2.5,1.3 3.6,3.3 3.9,6 -0.1,0.5 -0.1,1 -0.1,1.4 z"
   id="path115" />
		<path
   class="st6"
   d="m 405.6,513.5 c 0,-0.2 0,-0.4 0,-0.7 0.3,0 0.6,-0.1 1,-0.1 -0.3,0.3 -0.7,0.6 -1,0.8 z"
   id="path117" />
		<path
   class="st6"
   d="m 407,512.3 c 0.2,-0.2 0.3,-0.3 0.5,-0.5 -0.1,0.2 -0.3,0.4 -0.5,0.5 z"
   id="path119" />
		<path
   class="st6"
   d="m 406.6,512.8 c 0.2,-0.2 0.3,-0.3 0.5,-0.5 -0.2,0.2 -0.4,0.3 -0.5,0.5 z"
   id="path121" />
	</g>
</g>
</svg>
